<svg xmlns="http://www.w3.org/2000/svg" xmlns:xlink="http://www.w3.org/1999/xlink" id="Capa_1" x="0px" y="0px" viewBox="0 0 540 115.8" style="enable-background:new 0 0 540 115.8;" xml:space="preserve">
<style type="text/css">
	.st0{fill:#FFFFFF;}
	.st1{fill:url(#SVGID_1_);}
	.st2{fill:url(#SVGID_2_);}
	.st3{fill:url(#SVGID_3_);}
	.st4{fill:#10069F;}
</style>
<g>
	<g>
		<path class="st0" d="M197.9,87.2c-3.7-2-6.7-4.7-8.9-8.1c-2.2-3.5-3.3-7.4-3.3-11.7c0-3.2,0.6-6.2,1.9-9c1.3-2.8,3.1-5.2,5.3-7.2    c2.3-2.1,4.9-3.7,7.8-4.8c3-1.1,6-1.7,9.1-1.7c3.1,0,6.2,0.6,9.2,1.7c2.9,1,5.5,2.6,7.8,4.7c2.3,2.1,4.1,4.5,5.3,7.3    c1.3,2.8,1.9,5.8,1.9,9c0,3.3-0.6,6.3-1.9,9c-1.3,2.8-3.1,5.2-5.4,7.3c-2.3,2.1-4.9,3.7-7.8,4.8c-2.9,1.1-6,1.7-9.2,1.7    C205.7,90.2,201.7,89.2,197.9,87.2z M202.1,75c2.2,2.1,4.8,3.2,7.7,3.2c3,0,5.6-1.1,7.8-3.2c2.2-2.1,3.3-4.7,3.3-7.6    c0-1.9-0.5-3.7-1.5-5.3c-1-1.6-2.4-2.9-4.1-3.9c-1.7-1-3.5-1.4-5.5-1.4c-1.9,0-3.7,0.5-5.4,1.4c-1.7,1-3.1,2.3-4.1,3.9    c-1,1.6-1.5,3.4-1.5,5.3C198.8,70.3,199.9,72.9,202.1,75z"></path>
		<path class="st0" d="M239,31.4l13.2,0V90L239,90.2V31.4z"></path>
		<path class="st0" d="M318.9,57.8h-8.7V46.4h8.7V30.1l13.2,0.1v16.2h8.8l0,11.3h-8.8v14c0,3.7,2.3,5.6,7,5.6c1.5,0,2.7-0.2,3.5-0.5    V90c-0.7,0.1-5.2,0.2-5.8,0.2c-3.9,0-7.2-0.6-9.8-1.9c-2.6-1.3-4.6-3.2-6-5.7c-1.4-2.5-2-5.8-2-9.7V57.8z"></path>
		<path class="st0" d="M361,39.3c-0.6,1-1.4,1.8-2.5,2.5c-1,0.6-2.2,1-3.5,1c-1.3,0-2.4-0.3-3.4-0.9c-1-0.6-1.9-1.5-2.5-2.5    c-0.6-1.1-1-2.3-1-3.5c0-1.3,0.3-2.4,0.9-3.5c0.7-1.1,1.5-1.9,2.5-2.5c1-0.6,2.2-0.9,3.4-0.9c1.3,0,2.4,0.3,3.5,0.9    c1,0.6,1.8,1.4,2.5,2.5c0.6,1,0.9,2.2,0.9,3.5C361.9,37.1,361.6,38.3,361,39.3z M361.9,47.8v42.4h-13.2V47.8L361.9,47.8z"></path>
		<path class="st0" d="M380.5,87.2c-3.7-2-6.7-4.7-8.9-8.1c-2.2-3.5-3.3-7.4-3.3-11.7c0-3.2,0.6-6.2,1.9-9c1.3-2.8,3.1-5.2,5.3-7.2    c2.3-2.1,4.9-3.7,7.8-4.8c3-1.1,6-1.7,9.1-1.7c3.1,0,6.2,0.6,9.2,1.7c2.9,1,5.5,2.6,7.8,4.7c2.3,2.1,4.1,4.5,5.3,7.3    c1.3,2.8,1.9,5.8,1.9,9c0,3.3-0.6,6.3-1.9,9c-1.3,2.8-3.1,5.2-5.4,7.3c-2.3,2.1-4.9,3.7-7.8,4.8c-2.9,1.1-6,1.7-9.2,1.7    C388.3,90.2,384.3,89.2,380.5,87.2z M384.8,75c2.2,2.1,4.8,3.2,7.7,3.2c3,0,5.6-1.1,7.8-3.2c2.2-2.1,3.3-4.7,3.3-7.6    c0-1.9-0.5-3.7-1.5-5.3c-1-1.6-2.4-2.9-4.1-3.9c-1.7-1-3.5-1.4-5.5-1.4c-1.9,0-3.7,0.5-5.4,1.4c-1.7,1-3.1,2.3-4.1,3.9    c-1,1.6-1.5,3.4-1.5,5.3C381.5,70.3,382.6,72.9,384.8,75z"></path>
		<g>
			<path class="st0" d="M154.8,25.1c-14.6,0-24.7,7.9-24.7,20.4c0,9.9,5.8,15.7,18,18.4l10.3,2.2c5.3,1.1,6.6,3.2,6.6,5.3     c0,3.4-3.1,5.5-8.8,5.5c-6.5,0-10.8-2.6-12.6-7h-15.8c2.2,14,14.4,20,27.8,20.2c15.6,0,25.8-7.8,25.8-20.3     c0-10.7-7.4-15.3-18.7-17.8l-8.7-2c-4.7-1.1-7.2-2.5-7.2-5.9c0-4,3.5-6.2,8.8-6.2c5.4,0,8.4,2.4,9.5,6h15.8     C178.7,28.8,164.4,25.1,154.8,25.1z"></path>
		</g>
		<path class="st0" d="M289.6,44.3L289.6,44.3L289.6,44.3v25c0,4.2-3.4,7.7-7.7,7.7c-4,0-7.1-3.2-7.5-7.2v-1.3l0,0    c0-0.4,0-0.6,0-0.9V44.4h-14.6v25.3c0,12.6,7.7,20.4,19,20.4h6.6c11.3,0,19-7.8,19-20.4V44.4L289.6,44.3z"></path>
		<path class="st0" d="M436,90.2L436,90.2L436,90.2v-25c0-4.2,3.4-7.7,7.7-7.7c4,0,7.1,3.2,7.5,7.2V66l0,0c0,0.4,0,0.6,0,0.9V90    h14.6V64.7c0-12.6-7.7-20.4-19-20.4h-6.6c-11.3,0-19,7.8-19,20.4V90L436,90.2z"></path>
		<g>
			<path class="st0" d="M492.2,43.9c-11.7,0-19.4,5.4-19.4,14.6c0,7.7,5.2,11.9,12.8,13.2l8.8,1.5c2.8,0.5,4.2,1.6,4.2,3.1     c0,1.9-2.4,3.1-6.2,3.1c-3.7,0-6.5-1.2-7.7-3.5h-13.4c1.8,10.1,10.6,14.4,21.3,14.4c11.3,0,20.5-4.7,20.5-14.7     c0-7.8-5.4-11.7-13.6-13.2l-8.2-1.4c-3.4-0.6-4.5-2-4.5-3.4c0-1.8,1.8-3.2,5.5-3.2c3.3,0,5.9,1.1,7,3.2h13.2     C510.9,47.2,501,43.9,492.2,43.9z"></path>
		</g>
	</g>
	<g>
		<g>
			<linearGradient id="SVGID_1_" gradientUnits="userSpaceOnUse" x1="54.0685" y1="57.8868" x2="111.5313" y2="57.8868">
				<stop offset="0" style="stop-color:#00A5DF"></stop>
				<stop offset="1" style="stop-color:#00CFFF"></stop>
			</linearGradient>
			<path class="st1" d="M104.2,23.4H60c10.4,0.1,15.3,9.4,16.7,15.8c1.4,6.4-2.1,11.9-2.1,11.9c6.2,3.7,10,12.4,9.7,18     c-0.3,5.6-0.9,9.3-4.4,14.3c-2.9,4-9.2,8-12.9,9h7.9h2.9h13.4C87.7,89.7,89.7,77,89.7,77l1.9-15.6c0,0,6.7-0.6,13.7-4.9     l-3.9,20.7c0,0-2,12.9,1.8,15.1h1c5.2,0,9.4-4.2,9.4-9.4V32.8C113.6,27.6,109.4,23.4,104.2,23.4z"></path>
			<linearGradient id="SVGID_2_" gradientUnits="userSpaceOnUse" x1="48.2442" y1="41.6259" x2="108.9164" y2="41.6259">
				<stop offset="0" style="stop-color:#00A5DF"></stop>
				<stop offset="1" style="stop-color:#00CFFF"></stop>
			</linearGradient>
			<path class="st2" d="M50,34.3h5.1c4,0,7.3,3.3,7.3,7.3s-3.3,7.3-7.3,7.3H50V34.3z"></path>
			<linearGradient id="SVGID_3_" gradientUnits="userSpaceOnUse" x1="48.2442" y1="70.9109" x2="108.9164" y2="70.9109">
				<stop offset="0" style="stop-color:#00A5DF"></stop>
				<stop offset="1" style="stop-color:#00CFFF"></stop>
			</linearGradient>
			<path class="st3" d="M57.6,81.5H50V60.3h7.6c5.8,0,10.6,4.7,10.6,10.6C68.2,76.8,63.4,81.5,57.6,81.5z"></path>
		</g>
		<circle class="st4" cx="98.6" cy="47.8" r="7.4"></circle>
		<path class="st0" d="M34.3,92.4H50c12.5,0.1,17,0,17,0c3.6-1,10-5,12.9-9c3.6-4.9,4.2-8.7,4.4-14.3c0.3-5.6-3.6-14.3-9.7-18    c0,0,3.5-5.5,2.1-11.9c-1.4-6.4-6.3-15.8-16.8-15.8H34.3V92.4z M50,34.3h5.1c4,0,7.3,3.3,7.3,7.3s-3.3,7.3-7.3,7.3H50V34.3z     M57.6,81.5H50V60.3h7.6c5.8,0,10.6,4.7,10.6,10.6C68.2,76.8,63.4,81.5,57.6,81.5z"></path>
		
			<rect x="26.8" y="23.4" transform="matrix(-1 -1.224647e-16 1.224647e-16 -1 61.1246 115.7696)" class="st4" width="7.5" height="69"></rect>
		<path class="st0" d="M91.2,92.4C87.7,89.7,89.7,77,89.7,77l1.9-15.6c0,0,6.7-0.6,13.7-4.9l-3.9,20.7c0,0-2,12.9,1.8,15.1H91.2z"></path>
	</g>
</g>
</svg>